<svg width="1101" height="658" viewBox="0 0 1101 658" fill="none" xmlns="http://www.w3.org/2000/svg">
    <ellipse cx="550.5" cy="611" rx="550.5" ry="47" fill="#C0C0C0" />
    <g filter="url(#filter0_d_690_38)">
        <rect x="410" y="267" width="291" height="360" fill="#D9D9D9" />
    </g>
    <g filter="url(#filter1_d_690_38)">
        <rect x="701" y="489" width="292" height="138" fill="#D9D9D9" />
    </g>
    <g filter="url(#filter2_d_690_38)">
        <rect x="118" y="426" width="292" height="201" fill="#D9D9D9" />
    </g>
    <g filter="url(#filter3_f_690_38)">
        <rect x="489" y="9" width="128" height="122" rx="50" fill="#D9D9D9" />
        <rect x="486.5" y="6.5" width="133" height="127" rx="52.5" stroke="#FFEE00" stroke-width="5"
            stroke-linejoin="round" />
    </g>
    <g filter="url(#filter4_f_690_38)">
        <rect x="200" y="193" width="128" height="122" rx="50" fill="#D9D9D9" />
        <rect x="197.5" y="190.5" width="133" height="127" rx="52.5" stroke="#F7CD00" stroke-width="5"
            stroke-linejoin="round" />
    </g>
    <g filter="url(#filter5_f_690_38)">
        <rect x="783" y="267" width="128" height="122" rx="50" fill="#D9D9D9" />
        <rect x="780.5" y="264.5" width="133" height="127" rx="52.5" stroke="#A4A4A4" stroke-width="5"
            stroke-linejoin="round" />
    </g>
    <path
        d="M457.182 228.818C454.97 228.818 452.962 228.402 451.159 227.568C449.356 226.72 447.924 225.5 446.864 223.909C445.803 222.303 445.273 220.364 445.273 218.091C445.273 216.091 445.667 214.47 446.455 213.227C447.242 211.97 448.295 210.985 449.614 210.273C450.932 209.561 452.386 209.03 453.977 208.682C455.583 208.318 457.197 208.03 458.818 207.818C460.939 207.545 462.659 207.341 463.977 207.205C465.311 207.053 466.28 206.803 466.886 206.455C467.508 206.106 467.818 205.5 467.818 204.636V204.455C467.818 202.212 467.205 200.47 465.977 199.227C464.765 197.985 462.924 197.364 460.455 197.364C457.894 197.364 455.886 197.924 454.432 199.045C452.977 200.167 451.955 201.364 451.364 202.636L446.273 200.818C447.182 198.697 448.394 197.045 449.909 195.864C451.439 194.667 453.106 193.833 454.909 193.364C456.727 192.879 458.515 192.636 460.273 192.636C461.394 192.636 462.682 192.773 464.136 193.045C465.606 193.303 467.023 193.841 468.386 194.659C469.765 195.477 470.909 196.712 471.818 198.364C472.727 200.015 473.182 202.227 473.182 205V228H467.818V223.273H467.545C467.182 224.03 466.576 224.841 465.727 225.705C464.879 226.568 463.75 227.303 462.341 227.909C460.932 228.515 459.212 228.818 457.182 228.818ZM458 224C460.121 224 461.909 223.583 463.364 222.75C464.833 221.917 465.939 220.841 466.682 219.523C467.439 218.205 467.818 216.818 467.818 215.364V210.455C467.591 210.727 467.091 210.977 466.318 211.205C465.561 211.417 464.682 211.606 463.682 211.773C462.697 211.924 461.735 212.061 460.795 212.182C459.871 212.288 459.121 212.379 458.545 212.455C457.152 212.636 455.848 212.932 454.636 213.341C453.439 213.735 452.47 214.333 451.727 215.136C451 215.924 450.636 217 450.636 218.364C450.636 220.227 451.326 221.636 452.705 222.591C454.098 223.53 455.864 224 458 224ZM493.244 228.818C491.032 228.818 489.025 228.402 487.222 227.568C485.419 226.72 483.987 225.5 482.926 223.909C481.866 222.303 481.335 220.364 481.335 218.091C481.335 216.091 481.729 214.47 482.517 213.227C483.305 211.97 484.358 210.985 485.676 210.273C486.994 209.561 488.449 209.03 490.04 208.682C491.646 208.318 493.259 208.03 494.881 207.818C497.002 207.545 498.722 207.341 500.04 207.205C501.373 207.053 502.343 206.803 502.949 206.455C503.57 206.106 503.881 205.5 503.881 204.636V204.455C503.881 202.212 503.267 200.47 502.04 199.227C500.828 197.985 498.987 197.364 496.517 197.364C493.956 197.364 491.949 197.924 490.494 199.045C489.04 200.167 488.017 201.364 487.426 202.636L482.335 200.818C483.244 198.697 484.456 197.045 485.972 195.864C487.502 194.667 489.169 193.833 490.972 193.364C492.79 192.879 494.578 192.636 496.335 192.636C497.456 192.636 498.744 192.773 500.199 193.045C501.669 193.303 503.085 193.841 504.449 194.659C505.828 195.477 506.972 196.712 507.881 198.364C508.79 200.015 509.244 202.227 509.244 205V228H503.881V223.273H503.608C503.244 224.03 502.638 224.841 501.79 225.705C500.941 226.568 499.813 227.303 498.403 227.909C496.994 228.515 495.275 228.818 493.244 228.818ZM494.062 224C496.184 224 497.972 223.583 499.426 222.75C500.896 221.917 502.002 220.841 502.744 219.523C503.502 218.205 503.881 216.818 503.881 215.364V210.455C503.653 210.727 503.153 210.977 502.381 211.205C501.623 211.417 500.744 211.606 499.744 211.773C498.759 211.924 497.797 212.061 496.858 212.182C495.934 212.288 495.184 212.379 494.608 212.455C493.214 212.636 491.911 212.932 490.699 213.341C489.502 213.735 488.532 214.333 487.79 215.136C487.063 215.924 486.699 217 486.699 218.364C486.699 220.227 487.388 221.636 488.767 222.591C490.161 223.53 491.926 224 494.062 224ZM529.307 228.818C527.095 228.818 525.087 228.402 523.284 227.568C521.481 226.72 520.049 225.5 518.989 223.909C517.928 222.303 517.398 220.364 517.398 218.091C517.398 216.091 517.792 214.47 518.58 213.227C519.367 211.97 520.42 210.985 521.739 210.273C523.057 209.561 524.511 209.03 526.102 208.682C527.708 208.318 529.322 208.03 530.943 207.818C533.064 207.545 534.784 207.341 536.102 207.205C537.436 207.053 538.405 206.803 539.011 206.455C539.633 206.106 539.943 205.5 539.943 204.636V204.455C539.943 202.212 539.33 200.47 538.102 199.227C536.89 197.985 535.049 197.364 532.58 197.364C530.019 197.364 528.011 197.924 526.557 199.045C525.102 200.167 524.08 201.364 523.489 202.636L518.398 200.818C519.307 198.697 520.519 197.045 522.034 195.864C523.564 194.667 525.231 193.833 527.034 193.364C528.852 192.879 530.64 192.636 532.398 192.636C533.519 192.636 534.807 192.773 536.261 193.045C537.731 193.303 539.148 193.841 540.511 194.659C541.89 195.477 543.034 196.712 543.943 198.364C544.852 200.015 545.307 202.227 545.307 205V228H539.943V223.273H539.67C539.307 224.03 538.701 224.841 537.852 225.705C537.004 226.568 535.875 227.303 534.466 227.909C533.057 228.515 531.337 228.818 529.307 228.818ZM530.125 224C532.246 224 534.034 223.583 535.489 222.75C536.958 221.917 538.064 220.841 538.807 219.523C539.564 218.205 539.943 216.818 539.943 215.364V210.455C539.716 210.727 539.216 210.977 538.443 211.205C537.686 211.417 536.807 211.606 535.807 211.773C534.822 211.924 533.86 212.061 532.92 212.182C531.996 212.288 531.246 212.379 530.67 212.455C529.277 212.636 527.973 212.932 526.761 213.341C525.564 213.735 524.595 214.333 523.852 215.136C523.125 215.924 522.761 217 522.761 218.364C522.761 220.227 523.451 221.636 524.83 222.591C526.223 223.53 527.989 224 530.125 224ZM565.369 228.818C563.157 228.818 561.15 228.402 559.347 227.568C557.544 226.72 556.112 225.5 555.051 223.909C553.991 222.303 553.46 220.364 553.46 218.091C553.46 216.091 553.854 214.47 554.642 213.227C555.43 211.97 556.483 210.985 557.801 210.273C559.119 209.561 560.574 209.03 562.165 208.682C563.771 208.318 565.384 208.03 567.006 207.818C569.127 207.545 570.847 207.341 572.165 207.205C573.498 207.053 574.468 206.803 575.074 206.455C575.695 206.106 576.006 205.5 576.006 204.636V204.455C576.006 202.212 575.392 200.47 574.165 199.227C572.953 197.985 571.112 197.364 568.642 197.364C566.081 197.364 564.074 197.924 562.619 199.045C561.165 200.167 560.142 201.364 559.551 202.636L554.46 200.818C555.369 198.697 556.581 197.045 558.097 195.864C559.627 194.667 561.294 193.833 563.097 193.364C564.915 192.879 566.703 192.636 568.46 192.636C569.581 192.636 570.869 192.773 572.324 193.045C573.794 193.303 575.21 193.841 576.574 194.659C577.953 195.477 579.097 196.712 580.006 198.364C580.915 200.015 581.369 202.227 581.369 205V228H576.006V223.273H575.733C575.369 224.03 574.763 224.841 573.915 225.705C573.066 226.568 571.938 227.303 570.528 227.909C569.119 228.515 567.4 228.818 565.369 228.818ZM566.188 224C568.309 224 570.097 223.583 571.551 222.75C573.021 221.917 574.127 220.841 574.869 219.523C575.627 218.205 576.006 216.818 576.006 215.364V210.455C575.778 210.727 575.278 210.977 574.506 211.205C573.748 211.417 572.869 211.606 571.869 211.773C570.884 211.924 569.922 212.061 568.983 212.182C568.059 212.288 567.309 212.379 566.733 212.455C565.339 212.636 564.036 212.932 562.824 213.341C561.627 213.735 560.657 214.333 559.915 215.136C559.188 215.924 558.824 217 558.824 218.364C558.824 220.227 559.513 221.636 560.892 222.591C562.286 223.53 564.051 224 566.188 224ZM601.432 228.818C599.22 228.818 597.212 228.402 595.409 227.568C593.606 226.72 592.174 225.5 591.114 223.909C590.053 222.303 589.523 220.364 589.523 218.091C589.523 216.091 589.917 214.47 590.705 213.227C591.492 211.97 592.545 210.985 593.864 210.273C595.182 209.561 596.636 209.03 598.227 208.682C599.833 208.318 601.447 208.03 603.068 207.818C605.189 207.545 606.909 207.341 608.227 207.205C609.561 207.053 610.53 206.803 611.136 206.455C611.758 206.106 612.068 205.5 612.068 204.636V204.455C612.068 202.212 611.455 200.47 610.227 199.227C609.015 197.985 607.174 197.364 604.705 197.364C602.144 197.364 600.136 197.924 598.682 199.045C597.227 200.167 596.205 201.364 595.614 202.636L590.523 200.818C591.432 198.697 592.644 197.045 594.159 195.864C595.689 194.667 597.356 193.833 599.159 193.364C600.977 192.879 602.765 192.636 604.523 192.636C605.644 192.636 606.932 192.773 608.386 193.045C609.856 193.303 611.273 193.841 612.636 194.659C614.015 195.477 615.159 196.712 616.068 198.364C616.977 200.015 617.432 202.227 617.432 205V228H612.068V223.273H611.795C611.432 224.03 610.826 224.841 609.977 225.705C609.129 226.568 608 227.303 606.591 227.909C605.182 228.515 603.462 228.818 601.432 228.818ZM602.25 224C604.371 224 606.159 223.583 607.614 222.75C609.083 221.917 610.189 220.841 610.932 219.523C611.689 218.205 612.068 216.818 612.068 215.364V210.455C611.841 210.727 611.341 210.977 610.568 211.205C609.811 211.417 608.932 211.606 607.932 211.773C606.947 211.924 605.985 212.061 605.045 212.182C604.121 212.288 603.371 212.379 602.795 212.455C601.402 212.636 600.098 212.932 598.886 213.341C597.689 213.735 596.72 214.333 595.977 215.136C595.25 215.924 594.886 217 594.886 218.364C594.886 220.227 595.576 221.636 596.955 222.591C598.348 223.53 600.114 224 602.25 224ZM637.494 228.818C635.282 228.818 633.275 228.402 631.472 227.568C629.669 226.72 628.237 225.5 627.176 223.909C626.116 222.303 625.585 220.364 625.585 218.091C625.585 216.091 625.979 214.47 626.767 213.227C627.555 211.97 628.608 210.985 629.926 210.273C631.244 209.561 632.699 209.03 634.29 208.682C635.896 208.318 637.509 208.03 639.131 207.818C641.252 207.545 642.972 207.341 644.29 207.205C645.623 207.053 646.593 206.803 647.199 206.455C647.82 206.106 648.131 205.5 648.131 204.636V204.455C648.131 202.212 647.517 200.47 646.29 199.227C645.078 197.985 643.237 197.364 640.767 197.364C638.206 197.364 636.199 197.924 634.744 199.045C633.29 200.167 632.267 201.364 631.676 202.636L626.585 200.818C627.494 198.697 628.706 197.045 630.222 195.864C631.752 194.667 633.419 193.833 635.222 193.364C637.04 192.879 638.828 192.636 640.585 192.636C641.706 192.636 642.994 192.773 644.449 193.045C645.919 193.303 647.335 193.841 648.699 194.659C650.078 195.477 651.222 196.712 652.131 198.364C653.04 200.015 653.494 202.227 653.494 205V228H648.131V223.273H647.858C647.494 224.03 646.888 224.841 646.04 225.705C645.191 226.568 644.063 227.303 642.653 227.909C641.244 228.515 639.525 228.818 637.494 228.818ZM638.312 224C640.434 224 642.222 223.583 643.676 222.75C645.146 221.917 646.252 220.841 646.994 219.523C647.752 218.205 648.131 216.818 648.131 215.364V210.455C647.903 210.727 647.403 210.977 646.631 211.205C645.873 211.417 644.994 211.606 643.994 211.773C643.009 211.924 642.047 212.061 641.108 212.182C640.184 212.288 639.434 212.379 638.858 212.455C637.464 212.636 636.161 212.932 634.949 213.341C633.752 213.735 632.782 214.333 632.04 215.136C631.313 215.924 630.949 217 630.949 218.364C630.949 220.227 631.638 221.636 633.017 222.591C634.411 223.53 636.176 224 638.312 224Z"
        fill="black" />
    <path d="M562.023 357.455V404H552.182V366.795H551.909L541.25 373.477V364.75L552.773 357.455H562.023Z"
        fill="black" />
    <path
        d="M247.773 551V543.909L264.341 528.568C265.75 527.205 266.932 525.977 267.886 524.886C268.856 523.795 269.591 522.727 270.091 521.682C270.591 520.621 270.841 519.477 270.841 518.25C270.841 516.886 270.53 515.712 269.909 514.727C269.288 513.727 268.439 512.962 267.364 512.432C266.288 511.886 265.068 511.614 263.705 511.614C262.28 511.614 261.038 511.902 259.977 512.477C258.917 513.053 258.098 513.879 257.523 514.955C256.947 516.03 256.659 517.311 256.659 518.795H247.318C247.318 515.75 248.008 513.106 249.386 510.864C250.765 508.621 252.697 506.886 255.182 505.659C257.667 504.432 260.53 503.818 263.773 503.818C267.106 503.818 270.008 504.409 272.477 505.591C274.962 506.758 276.894 508.379 278.273 510.455C279.652 512.53 280.341 514.909 280.341 517.591C280.341 519.348 279.992 521.083 279.295 522.795C278.614 524.508 277.394 526.409 275.636 528.5C273.879 530.576 271.402 533.068 268.205 535.977L261.409 542.636V542.955H280.955V551H247.773Z"
        fill="black" />
    <g filter="url(#filter6_d_690_38)">
        <path
            d="M846.977 581.636C843.583 581.636 840.561 581.053 837.909 579.886C835.273 578.705 833.189 577.083 831.659 575.023C830.144 572.947 829.364 570.553 829.318 567.841H839.227C839.288 568.977 839.659 569.977 840.341 570.841C841.038 571.689 841.962 572.348 843.114 572.818C844.265 573.288 845.561 573.523 847 573.523C848.5 573.523 849.826 573.258 850.977 572.727C852.129 572.197 853.03 571.462 853.682 570.523C854.333 569.583 854.659 568.5 854.659 567.273C854.659 566.03 854.311 564.932 853.614 563.977C852.932 563.008 851.947 562.25 850.659 561.705C849.386 561.159 847.871 560.886 846.114 560.886H841.773V553.659H846.114C847.598 553.659 848.909 553.402 850.045 552.886C851.197 552.371 852.091 551.659 852.727 550.75C853.364 549.826 853.682 548.75 853.682 547.523C853.682 546.356 853.402 545.333 852.841 544.455C852.295 543.561 851.523 542.864 850.523 542.364C849.538 541.864 848.386 541.614 847.068 541.614C845.735 541.614 844.515 541.856 843.409 542.341C842.303 542.811 841.417 543.485 840.75 544.364C840.083 545.242 839.727 546.273 839.682 547.455H830.25C830.295 544.773 831.061 542.409 832.545 540.364C834.03 538.318 836.03 536.72 838.545 535.568C841.076 534.402 843.932 533.818 847.114 533.818C850.326 533.818 853.136 534.402 855.545 535.568C857.955 536.735 859.826 538.311 861.159 540.295C862.508 542.265 863.174 544.477 863.159 546.932C863.174 549.538 862.364 551.712 860.727 553.455C859.106 555.197 856.992 556.303 854.386 556.773V557.136C857.811 557.576 860.417 558.765 862.205 560.705C864.008 562.629 864.902 565.038 864.886 567.932C864.902 570.583 864.136 572.939 862.591 575C861.061 577.061 858.947 578.682 856.25 579.864C853.553 581.045 850.462 581.636 846.977 581.636Z"
            fill="black" />
    </g>
    <path
        d="M170.182 389.818C167.97 389.818 165.962 389.402 164.159 388.568C162.356 387.72 160.924 386.5 159.864 384.909C158.803 383.303 158.273 381.364 158.273 379.091C158.273 377.091 158.667 375.47 159.455 374.227C160.242 372.97 161.295 371.985 162.614 371.273C163.932 370.561 165.386 370.03 166.977 369.682C168.583 369.318 170.197 369.03 171.818 368.818C173.939 368.545 175.659 368.341 176.977 368.205C178.311 368.053 179.28 367.803 179.886 367.455C180.508 367.106 180.818 366.5 180.818 365.636V365.455C180.818 363.212 180.205 361.47 178.977 360.227C177.765 358.985 175.924 358.364 173.455 358.364C170.894 358.364 168.886 358.924 167.432 360.045C165.977 361.167 164.955 362.364 164.364 363.636L159.273 361.818C160.182 359.697 161.394 358.045 162.909 356.864C164.439 355.667 166.106 354.833 167.909 354.364C169.727 353.879 171.515 353.636 173.273 353.636C174.394 353.636 175.682 353.773 177.136 354.045C178.606 354.303 180.023 354.841 181.386 355.659C182.765 356.477 183.909 357.712 184.818 359.364C185.727 361.015 186.182 363.227 186.182 366V389H180.818V384.273H180.545C180.182 385.03 179.576 385.841 178.727 386.705C177.879 387.568 176.75 388.303 175.341 388.909C173.932 389.515 172.212 389.818 170.182 389.818ZM171 385C173.121 385 174.909 384.583 176.364 383.75C177.833 382.917 178.939 381.841 179.682 380.523C180.439 379.205 180.818 377.818 180.818 376.364V371.455C180.591 371.727 180.091 371.977 179.318 372.205C178.561 372.417 177.682 372.606 176.682 372.773C175.697 372.924 174.735 373.061 173.795 373.182C172.871 373.288 172.121 373.379 171.545 373.455C170.152 373.636 168.848 373.932 167.636 374.341C166.439 374.735 165.47 375.333 164.727 376.136C164 376.924 163.636 378 163.636 379.364C163.636 381.227 164.326 382.636 165.705 383.591C167.098 384.53 168.864 385 171 385ZM206.244 389.818C204.032 389.818 202.025 389.402 200.222 388.568C198.419 387.72 196.987 386.5 195.926 384.909C194.866 383.303 194.335 381.364 194.335 379.091C194.335 377.091 194.729 375.47 195.517 374.227C196.305 372.97 197.358 371.985 198.676 371.273C199.994 370.561 201.449 370.03 203.04 369.682C204.646 369.318 206.259 369.03 207.881 368.818C210.002 368.545 211.722 368.341 213.04 368.205C214.373 368.053 215.343 367.803 215.949 367.455C216.57 367.106 216.881 366.5 216.881 365.636V365.455C216.881 363.212 216.267 361.47 215.04 360.227C213.828 358.985 211.987 358.364 209.517 358.364C206.956 358.364 204.949 358.924 203.494 360.045C202.04 361.167 201.017 362.364 200.426 363.636L195.335 361.818C196.244 359.697 197.456 358.045 198.972 356.864C200.502 355.667 202.169 354.833 203.972 354.364C205.79 353.879 207.578 353.636 209.335 353.636C210.456 353.636 211.744 353.773 213.199 354.045C214.669 354.303 216.085 354.841 217.449 355.659C218.828 356.477 219.972 357.712 220.881 359.364C221.79 361.015 222.244 363.227 222.244 366V389H216.881V384.273H216.608C216.244 385.03 215.638 385.841 214.79 386.705C213.941 387.568 212.813 388.303 211.403 388.909C209.994 389.515 208.275 389.818 206.244 389.818ZM207.062 385C209.184 385 210.972 384.583 212.426 383.75C213.896 382.917 215.002 381.841 215.744 380.523C216.502 379.205 216.881 377.818 216.881 376.364V371.455C216.653 371.727 216.153 371.977 215.381 372.205C214.623 372.417 213.744 372.606 212.744 372.773C211.759 372.924 210.797 373.061 209.858 373.182C208.934 373.288 208.184 373.379 207.608 373.455C206.214 373.636 204.911 373.932 203.699 374.341C202.502 374.735 201.532 375.333 200.79 376.136C200.063 376.924 199.699 378 199.699 379.364C199.699 381.227 200.388 382.636 201.767 383.591C203.161 384.53 204.926 385 207.062 385ZM242.307 389.818C240.095 389.818 238.087 389.402 236.284 388.568C234.481 387.72 233.049 386.5 231.989 384.909C230.928 383.303 230.398 381.364 230.398 379.091C230.398 377.091 230.792 375.47 231.58 374.227C232.367 372.97 233.42 371.985 234.739 371.273C236.057 370.561 237.511 370.03 239.102 369.682C240.708 369.318 242.322 369.03 243.943 368.818C246.064 368.545 247.784 368.341 249.102 368.205C250.436 368.053 251.405 367.803 252.011 367.455C252.633 367.106 252.943 366.5 252.943 365.636V365.455C252.943 363.212 252.33 361.47 251.102 360.227C249.89 358.985 248.049 358.364 245.58 358.364C243.019 358.364 241.011 358.924 239.557 360.045C238.102 361.167 237.08 362.364 236.489 363.636L231.398 361.818C232.307 359.697 233.519 358.045 235.034 356.864C236.564 355.667 238.231 354.833 240.034 354.364C241.852 353.879 243.64 353.636 245.398 353.636C246.519 353.636 247.807 353.773 249.261 354.045C250.731 354.303 252.148 354.841 253.511 355.659C254.89 356.477 256.034 357.712 256.943 359.364C257.852 361.015 258.307 363.227 258.307 366V389H252.943V384.273H252.67C252.307 385.03 251.701 385.841 250.852 386.705C250.004 387.568 248.875 388.303 247.466 388.909C246.057 389.515 244.337 389.818 242.307 389.818ZM243.125 385C245.246 385 247.034 384.583 248.489 383.75C249.958 382.917 251.064 381.841 251.807 380.523C252.564 379.205 252.943 377.818 252.943 376.364V371.455C252.716 371.727 252.216 371.977 251.443 372.205C250.686 372.417 249.807 372.606 248.807 372.773C247.822 372.924 246.86 373.061 245.92 373.182C244.996 373.288 244.246 373.379 243.67 373.455C242.277 373.636 240.973 373.932 239.761 374.341C238.564 374.735 237.595 375.333 236.852 376.136C236.125 376.924 235.761 378 235.761 379.364C235.761 381.227 236.451 382.636 237.83 383.591C239.223 384.53 240.989 385 243.125 385ZM278.369 389.818C276.157 389.818 274.15 389.402 272.347 388.568C270.544 387.72 269.112 386.5 268.051 384.909C266.991 383.303 266.46 381.364 266.46 379.091C266.46 377.091 266.854 375.47 267.642 374.227C268.43 372.97 269.483 371.985 270.801 371.273C272.119 370.561 273.574 370.03 275.165 369.682C276.771 369.318 278.384 369.03 280.006 368.818C282.127 368.545 283.847 368.341 285.165 368.205C286.498 368.053 287.468 367.803 288.074 367.455C288.695 367.106 289.006 366.5 289.006 365.636V365.455C289.006 363.212 288.392 361.47 287.165 360.227C285.953 358.985 284.112 358.364 281.642 358.364C279.081 358.364 277.074 358.924 275.619 360.045C274.165 361.167 273.142 362.364 272.551 363.636L267.46 361.818C268.369 359.697 269.581 358.045 271.097 356.864C272.627 355.667 274.294 354.833 276.097 354.364C277.915 353.879 279.703 353.636 281.46 353.636C282.581 353.636 283.869 353.773 285.324 354.045C286.794 354.303 288.21 354.841 289.574 355.659C290.953 356.477 292.097 357.712 293.006 359.364C293.915 361.015 294.369 363.227 294.369 366V389H289.006V384.273H288.733C288.369 385.03 287.763 385.841 286.915 386.705C286.066 387.568 284.938 388.303 283.528 388.909C282.119 389.515 280.4 389.818 278.369 389.818ZM279.188 385C281.309 385 283.097 384.583 284.551 383.75C286.021 382.917 287.127 381.841 287.869 380.523C288.627 379.205 289.006 377.818 289.006 376.364V371.455C288.778 371.727 288.278 371.977 287.506 372.205C286.748 372.417 285.869 372.606 284.869 372.773C283.884 372.924 282.922 373.061 281.983 373.182C281.059 373.288 280.309 373.379 279.733 373.455C278.339 373.636 277.036 373.932 275.824 374.341C274.627 374.735 273.657 375.333 272.915 376.136C272.188 376.924 271.824 378 271.824 379.364C271.824 381.227 272.513 382.636 273.892 383.591C275.286 384.53 277.051 385 279.188 385ZM314.432 389.818C312.22 389.818 310.212 389.402 308.409 388.568C306.606 387.72 305.174 386.5 304.114 384.909C303.053 383.303 302.523 381.364 302.523 379.091C302.523 377.091 302.917 375.47 303.705 374.227C304.492 372.97 305.545 371.985 306.864 371.273C308.182 370.561 309.636 370.03 311.227 369.682C312.833 369.318 314.447 369.03 316.068 368.818C318.189 368.545 319.909 368.341 321.227 368.205C322.561 368.053 323.53 367.803 324.136 367.455C324.758 367.106 325.068 366.5 325.068 365.636V365.455C325.068 363.212 324.455 361.47 323.227 360.227C322.015 358.985 320.174 358.364 317.705 358.364C315.144 358.364 313.136 358.924 311.682 360.045C310.227 361.167 309.205 362.364 308.614 363.636L303.523 361.818C304.432 359.697 305.644 358.045 307.159 356.864C308.689 355.667 310.356 354.833 312.159 354.364C313.977 353.879 315.765 353.636 317.523 353.636C318.644 353.636 319.932 353.773 321.386 354.045C322.856 354.303 324.273 354.841 325.636 355.659C327.015 356.477 328.159 357.712 329.068 359.364C329.977 361.015 330.432 363.227 330.432 366V389H325.068V384.273H324.795C324.432 385.03 323.826 385.841 322.977 386.705C322.129 387.568 321 388.303 319.591 388.909C318.182 389.515 316.462 389.818 314.432 389.818ZM315.25 385C317.371 385 319.159 384.583 320.614 383.75C322.083 382.917 323.189 381.841 323.932 380.523C324.689 379.205 325.068 377.818 325.068 376.364V371.455C324.841 371.727 324.341 371.977 323.568 372.205C322.811 372.417 321.932 372.606 320.932 372.773C319.947 372.924 318.985 373.061 318.045 373.182C317.121 373.288 316.371 373.379 315.795 373.455C314.402 373.636 313.098 373.932 311.886 374.341C310.689 374.735 309.72 375.333 308.977 376.136C308.25 376.924 307.886 378 307.886 379.364C307.886 381.227 308.576 382.636 309.955 383.591C311.348 384.53 313.114 385 315.25 385ZM350.494 389.818C348.282 389.818 346.275 389.402 344.472 388.568C342.669 387.72 341.237 386.5 340.176 384.909C339.116 383.303 338.585 381.364 338.585 379.091C338.585 377.091 338.979 375.47 339.767 374.227C340.555 372.97 341.608 371.985 342.926 371.273C344.244 370.561 345.699 370.03 347.29 369.682C348.896 369.318 350.509 369.03 352.131 368.818C354.252 368.545 355.972 368.341 357.29 368.205C358.623 368.053 359.593 367.803 360.199 367.455C360.82 367.106 361.131 366.5 361.131 365.636V365.455C361.131 363.212 360.517 361.47 359.29 360.227C358.078 358.985 356.237 358.364 353.767 358.364C351.206 358.364 349.199 358.924 347.744 360.045C346.29 361.167 345.267 362.364 344.676 363.636L339.585 361.818C340.494 359.697 341.706 358.045 343.222 356.864C344.752 355.667 346.419 354.833 348.222 354.364C350.04 353.879 351.828 353.636 353.585 353.636C354.706 353.636 355.994 353.773 357.449 354.045C358.919 354.303 360.335 354.841 361.699 355.659C363.078 356.477 364.222 357.712 365.131 359.364C366.04 361.015 366.494 363.227 366.494 366V389H361.131V384.273H360.858C360.494 385.03 359.888 385.841 359.04 386.705C358.191 387.568 357.063 388.303 355.653 388.909C354.244 389.515 352.525 389.818 350.494 389.818ZM351.312 385C353.434 385 355.222 384.583 356.676 383.75C358.146 382.917 359.252 381.841 359.994 380.523C360.752 379.205 361.131 377.818 361.131 376.364V371.455C360.903 371.727 360.403 371.977 359.631 372.205C358.873 372.417 357.994 372.606 356.994 372.773C356.009 372.924 355.047 373.061 354.108 373.182C353.184 373.288 352.434 373.379 351.858 373.455C350.464 373.636 349.161 373.932 347.949 374.341C346.752 374.735 345.782 375.333 345.04 376.136C344.313 376.924 343.949 378 343.949 379.364C343.949 381.227 344.638 382.636 346.017 383.591C347.411 384.53 349.176 385 351.312 385Z"
        fill="black" />
    <path
        d="M753.182 450.818C750.97 450.818 748.962 450.402 747.159 449.568C745.356 448.72 743.924 447.5 742.864 445.909C741.803 444.303 741.273 442.364 741.273 440.091C741.273 438.091 741.667 436.47 742.455 435.227C743.242 433.97 744.295 432.985 745.614 432.273C746.932 431.561 748.386 431.03 749.977 430.682C751.583 430.318 753.197 430.03 754.818 429.818C756.939 429.545 758.659 429.341 759.977 429.205C761.311 429.053 762.28 428.803 762.886 428.455C763.508 428.106 763.818 427.5 763.818 426.636V426.455C763.818 424.212 763.205 422.47 761.977 421.227C760.765 419.985 758.924 419.364 756.455 419.364C753.894 419.364 751.886 419.924 750.432 421.045C748.977 422.167 747.955 423.364 747.364 424.636L742.273 422.818C743.182 420.697 744.394 419.045 745.909 417.864C747.439 416.667 749.106 415.833 750.909 415.364C752.727 414.879 754.515 414.636 756.273 414.636C757.394 414.636 758.682 414.773 760.136 415.045C761.606 415.303 763.023 415.841 764.386 416.659C765.765 417.477 766.909 418.712 767.818 420.364C768.727 422.015 769.182 424.227 769.182 427V450H763.818V445.273H763.545C763.182 446.03 762.576 446.841 761.727 447.705C760.879 448.568 759.75 449.303 758.341 449.909C756.932 450.515 755.212 450.818 753.182 450.818ZM754 446C756.121 446 757.909 445.583 759.364 444.75C760.833 443.917 761.939 442.841 762.682 441.523C763.439 440.205 763.818 438.818 763.818 437.364V432.455C763.591 432.727 763.091 432.977 762.318 433.205C761.561 433.417 760.682 433.606 759.682 433.773C758.697 433.924 757.735 434.061 756.795 434.182C755.871 434.288 755.121 434.379 754.545 434.455C753.152 434.636 751.848 434.932 750.636 435.341C749.439 435.735 748.47 436.333 747.727 437.136C747 437.924 746.636 439 746.636 440.364C746.636 442.227 747.326 443.636 748.705 444.591C750.098 445.53 751.864 446 754 446ZM789.244 450.818C787.032 450.818 785.025 450.402 783.222 449.568C781.419 448.72 779.987 447.5 778.926 445.909C777.866 444.303 777.335 442.364 777.335 440.091C777.335 438.091 777.729 436.47 778.517 435.227C779.305 433.97 780.358 432.985 781.676 432.273C782.994 431.561 784.449 431.03 786.04 430.682C787.646 430.318 789.259 430.03 790.881 429.818C793.002 429.545 794.722 429.341 796.04 429.205C797.373 429.053 798.343 428.803 798.949 428.455C799.57 428.106 799.881 427.5 799.881 426.636V426.455C799.881 424.212 799.267 422.47 798.04 421.227C796.828 419.985 794.987 419.364 792.517 419.364C789.956 419.364 787.949 419.924 786.494 421.045C785.04 422.167 784.017 423.364 783.426 424.636L778.335 422.818C779.244 420.697 780.456 419.045 781.972 417.864C783.502 416.667 785.169 415.833 786.972 415.364C788.79 414.879 790.578 414.636 792.335 414.636C793.456 414.636 794.744 414.773 796.199 415.045C797.669 415.303 799.085 415.841 800.449 416.659C801.828 417.477 802.972 418.712 803.881 420.364C804.79 422.015 805.244 424.227 805.244 427V450H799.881V445.273H799.608C799.244 446.03 798.638 446.841 797.79 447.705C796.941 448.568 795.813 449.303 794.403 449.909C792.994 450.515 791.275 450.818 789.244 450.818ZM790.062 446C792.184 446 793.972 445.583 795.426 444.75C796.896 443.917 798.002 442.841 798.744 441.523C799.502 440.205 799.881 438.818 799.881 437.364V432.455C799.653 432.727 799.153 432.977 798.381 433.205C797.623 433.417 796.744 433.606 795.744 433.773C794.759 433.924 793.797 434.061 792.858 434.182C791.934 434.288 791.184 434.379 790.608 434.455C789.214 434.636 787.911 434.932 786.699 435.341C785.502 435.735 784.532 436.333 783.79 437.136C783.063 437.924 782.699 439 782.699 440.364C782.699 442.227 783.388 443.636 784.767 444.591C786.161 445.53 787.926 446 790.062 446ZM825.307 450.818C823.095 450.818 821.087 450.402 819.284 449.568C817.481 448.72 816.049 447.5 814.989 445.909C813.928 444.303 813.398 442.364 813.398 440.091C813.398 438.091 813.792 436.47 814.58 435.227C815.367 433.97 816.42 432.985 817.739 432.273C819.057 431.561 820.511 431.03 822.102 430.682C823.708 430.318 825.322 430.03 826.943 429.818C829.064 429.545 830.784 429.341 832.102 429.205C833.436 429.053 834.405 428.803 835.011 428.455C835.633 428.106 835.943 427.5 835.943 426.636V426.455C835.943 424.212 835.33 422.47 834.102 421.227C832.89 419.985 831.049 419.364 828.58 419.364C826.019 419.364 824.011 419.924 822.557 421.045C821.102 422.167 820.08 423.364 819.489 424.636L814.398 422.818C815.307 420.697 816.519 419.045 818.034 417.864C819.564 416.667 821.231 415.833 823.034 415.364C824.852 414.879 826.64 414.636 828.398 414.636C829.519 414.636 830.807 414.773 832.261 415.045C833.731 415.303 835.148 415.841 836.511 416.659C837.89 417.477 839.034 418.712 839.943 420.364C840.852 422.015 841.307 424.227 841.307 427V450H835.943V445.273H835.67C835.307 446.03 834.701 446.841 833.852 447.705C833.004 448.568 831.875 449.303 830.466 449.909C829.057 450.515 827.337 450.818 825.307 450.818ZM826.125 446C828.246 446 830.034 445.583 831.489 444.75C832.958 443.917 834.064 442.841 834.807 441.523C835.564 440.205 835.943 438.818 835.943 437.364V432.455C835.716 432.727 835.216 432.977 834.443 433.205C833.686 433.417 832.807 433.606 831.807 433.773C830.822 433.924 829.86 434.061 828.92 434.182C827.996 434.288 827.246 434.379 826.67 434.455C825.277 434.636 823.973 434.932 822.761 435.341C821.564 435.735 820.595 436.333 819.852 437.136C819.125 437.924 818.761 439 818.761 440.364C818.761 442.227 819.451 443.636 820.83 444.591C822.223 445.53 823.989 446 826.125 446ZM861.369 450.818C859.157 450.818 857.15 450.402 855.347 449.568C853.544 448.72 852.112 447.5 851.051 445.909C849.991 444.303 849.46 442.364 849.46 440.091C849.46 438.091 849.854 436.47 850.642 435.227C851.43 433.97 852.483 432.985 853.801 432.273C855.119 431.561 856.574 431.03 858.165 430.682C859.771 430.318 861.384 430.03 863.006 429.818C865.127 429.545 866.847 429.341 868.165 429.205C869.498 429.053 870.468 428.803 871.074 428.455C871.695 428.106 872.006 427.5 872.006 426.636V426.455C872.006 424.212 871.392 422.47 870.165 421.227C868.953 419.985 867.112 419.364 864.642 419.364C862.081 419.364 860.074 419.924 858.619 421.045C857.165 422.167 856.142 423.364 855.551 424.636L850.46 422.818C851.369 420.697 852.581 419.045 854.097 417.864C855.627 416.667 857.294 415.833 859.097 415.364C860.915 414.879 862.703 414.636 864.46 414.636C865.581 414.636 866.869 414.773 868.324 415.045C869.794 415.303 871.21 415.841 872.574 416.659C873.953 417.477 875.097 418.712 876.006 420.364C876.915 422.015 877.369 424.227 877.369 427V450H872.006V445.273H871.733C871.369 446.03 870.763 446.841 869.915 447.705C869.066 448.568 867.938 449.303 866.528 449.909C865.119 450.515 863.4 450.818 861.369 450.818ZM862.188 446C864.309 446 866.097 445.583 867.551 444.75C869.021 443.917 870.127 442.841 870.869 441.523C871.627 440.205 872.006 438.818 872.006 437.364V432.455C871.778 432.727 871.278 432.977 870.506 433.205C869.748 433.417 868.869 433.606 867.869 433.773C866.884 433.924 865.922 434.061 864.983 434.182C864.059 434.288 863.309 434.379 862.733 434.455C861.339 434.636 860.036 434.932 858.824 435.341C857.627 435.735 856.657 436.333 855.915 437.136C855.188 437.924 854.824 439 854.824 440.364C854.824 442.227 855.513 443.636 856.892 444.591C858.286 445.53 860.051 446 862.188 446ZM897.432 450.818C895.22 450.818 893.212 450.402 891.409 449.568C889.606 448.72 888.174 447.5 887.114 445.909C886.053 444.303 885.523 442.364 885.523 440.091C885.523 438.091 885.917 436.47 886.705 435.227C887.492 433.97 888.545 432.985 889.864 432.273C891.182 431.561 892.636 431.03 894.227 430.682C895.833 430.318 897.447 430.03 899.068 429.818C901.189 429.545 902.909 429.341 904.227 429.205C905.561 429.053 906.53 428.803 907.136 428.455C907.758 428.106 908.068 427.5 908.068 426.636V426.455C908.068 424.212 907.455 422.47 906.227 421.227C905.015 419.985 903.174 419.364 900.705 419.364C898.144 419.364 896.136 419.924 894.682 421.045C893.227 422.167 892.205 423.364 891.614 424.636L886.523 422.818C887.432 420.697 888.644 419.045 890.159 417.864C891.689 416.667 893.356 415.833 895.159 415.364C896.977 414.879 898.765 414.636 900.523 414.636C901.644 414.636 902.932 414.773 904.386 415.045C905.856 415.303 907.273 415.841 908.636 416.659C910.015 417.477 911.159 418.712 912.068 420.364C912.977 422.015 913.432 424.227 913.432 427V450H908.068V445.273H907.795C907.432 446.03 906.826 446.841 905.977 447.705C905.129 448.568 904 449.303 902.591 449.909C901.182 450.515 899.462 450.818 897.432 450.818ZM898.25 446C900.371 446 902.159 445.583 903.614 444.75C905.083 443.917 906.189 442.841 906.932 441.523C907.689 440.205 908.068 438.818 908.068 437.364V432.455C907.841 432.727 907.341 432.977 906.568 433.205C905.811 433.417 904.932 433.606 903.932 433.773C902.947 433.924 901.985 434.061 901.045 434.182C900.121 434.288 899.371 434.379 898.795 434.455C897.402 434.636 896.098 434.932 894.886 435.341C893.689 435.735 892.72 436.333 891.977 437.136C891.25 437.924 890.886 439 890.886 440.364C890.886 442.227 891.576 443.636 892.955 444.591C894.348 445.53 896.114 446 898.25 446ZM933.494 450.818C931.282 450.818 929.275 450.402 927.472 449.568C925.669 448.72 924.237 447.5 923.176 445.909C922.116 444.303 921.585 442.364 921.585 440.091C921.585 438.091 921.979 436.47 922.767 435.227C923.555 433.97 924.608 432.985 925.926 432.273C927.244 431.561 928.699 431.03 930.29 430.682C931.896 430.318 933.509 430.03 935.131 429.818C937.252 429.545 938.972 429.341 940.29 429.205C941.623 429.053 942.593 428.803 943.199 428.455C943.82 428.106 944.131 427.5 944.131 426.636V426.455C944.131 424.212 943.517 422.47 942.29 421.227C941.078 419.985 939.237 419.364 936.767 419.364C934.206 419.364 932.199 419.924 930.744 421.045C929.29 422.167 928.267 423.364 927.676 424.636L922.585 422.818C923.494 420.697 924.706 419.045 926.222 417.864C927.752 416.667 929.419 415.833 931.222 415.364C933.04 414.879 934.828 414.636 936.585 414.636C937.706 414.636 938.994 414.773 940.449 415.045C941.919 415.303 943.335 415.841 944.699 416.659C946.078 417.477 947.222 418.712 948.131 420.364C949.04 422.015 949.494 424.227 949.494 427V450H944.131V445.273H943.858C943.494 446.03 942.888 446.841 942.04 447.705C941.191 448.568 940.063 449.303 938.653 449.909C937.244 450.515 935.525 450.818 933.494 450.818ZM934.312 446C936.434 446 938.222 445.583 939.676 444.75C941.146 443.917 942.252 442.841 942.994 441.523C943.752 440.205 944.131 438.818 944.131 437.364V432.455C943.903 432.727 943.403 432.977 942.631 433.205C941.873 433.417 940.994 433.606 939.994 433.773C939.009 433.924 938.047 434.061 937.108 434.182C936.184 434.288 935.434 434.379 934.858 434.455C933.464 434.636 932.161 434.932 930.949 435.341C929.752 435.735 928.782 436.333 928.04 437.136C927.313 437.924 926.949 439 926.949 440.364C926.949 442.227 927.638 443.636 929.017 444.591C930.411 445.53 932.176 446 934.312 446Z"
        fill="black" />
    <rect x="409" y="240" width="292" height="27" fill="#E5E4E4" />
    <path d="M409.5 267L370.096 237.75H448.904L409.5 267Z" fill="white" />
    <path d="M700.5 267L661.096 240H739.904L700.5 267Z" fill="white" />
    <rect x="118" y="399" width="292" height="27" fill="#E5E4E4" />
    <path d="M118.5 426L79.0958 396.75H157.904L118.5 426Z" fill="white" />
    <rect x="701" y="462" width="292" height="27" fill="#E5E4E4" />
    <path d="M992.5 489L953.096 462H992.5V489Z" fill="white" />
    <path d="M701 489L730 462H701V489Z" fill="#DCDCDC" />
    <defs>
        <filter id="filter0_d_690_38" x="406" y="267" width="299" height="368" filterUnits="userSpaceOnUse"
            color-interpolation-filters="sRGB">
            <feFlood flood-opacity="0" result="BackgroundImageFix" />
            <feColorMatrix in="SourceAlpha" type="matrix" values="0 0 0 0 0 0 0 0 0 0 0 0 0 0 0 0 0 0 127 0"
                result="hardAlpha" />
            <feOffset dy="4" />
            <feGaussianBlur stdDeviation="2" />
            <feComposite in2="hardAlpha" operator="out" />
            <feColorMatrix type="matrix" values="0 0 0 0 0 0 0 0 0 0 0 0 0 0 0 0 0 0 0.25 0" />
            <feBlend mode="normal" in2="BackgroundImageFix" result="effect1_dropShadow_690_38" />
            <feBlend mode="normal" in="SourceGraphic" in2="effect1_dropShadow_690_38" result="shape" />
        </filter>
        <filter id="filter1_d_690_38" x="697" y="489" width="300" height="146" filterUnits="userSpaceOnUse"
            color-interpolation-filters="sRGB">
            <feFlood flood-opacity="0" result="BackgroundImageFix" />
            <feColorMatrix in="SourceAlpha" type="matrix" values="0 0 0 0 0 0 0 0 0 0 0 0 0 0 0 0 0 0 127 0"
                result="hardAlpha" />
            <feOffset dy="4" />
            <feGaussianBlur stdDeviation="2" />
            <feComposite in2="hardAlpha" operator="out" />
            <feColorMatrix type="matrix" values="0 0 0 0 0 0 0 0 0 0 0 0 0 0 0 0 0 0 0.25 0" />
            <feBlend mode="normal" in2="BackgroundImageFix" result="effect1_dropShadow_690_38" />
            <feBlend mode="normal" in="SourceGraphic" in2="effect1_dropShadow_690_38" result="shape" />
        </filter>
        <filter id="filter2_d_690_38" x="114" y="426" width="300" height="209" filterUnits="userSpaceOnUse"
            color-interpolation-filters="sRGB">
            <feFlood flood-opacity="0" result="BackgroundImageFix" />
            <feColorMatrix in="SourceAlpha" type="matrix" values="0 0 0 0 0 0 0 0 0 0 0 0 0 0 0 0 0 0 127 0"
                result="hardAlpha" />
            <feOffset dy="4" />
            <feGaussianBlur stdDeviation="2" />
            <feComposite in2="hardAlpha" operator="out" />
            <feColorMatrix type="matrix" values="0 0 0 0 0 0 0 0 0 0 0 0 0 0 0 0 0 0 0.25 0" />
            <feBlend mode="normal" in2="BackgroundImageFix" result="effect1_dropShadow_690_38" />
            <feBlend mode="normal" in="SourceGraphic" in2="effect1_dropShadow_690_38" result="shape" />
        </filter>
        <filter id="filter3_f_690_38" x="480" y="0" width="146" height="140" filterUnits="userSpaceOnUse"
            color-interpolation-filters="sRGB">
            <feFlood flood-opacity="0" result="BackgroundImageFix" />
            <feBlend mode="normal" in="SourceGraphic" in2="BackgroundImageFix" result="shape" />
            <feGaussianBlur stdDeviation="2" result="effect1_foregroundBlur_690_38" />
        </filter>
        <filter id="filter4_f_690_38" x="191" y="184" width="146" height="140" filterUnits="userSpaceOnUse"
            color-interpolation-filters="sRGB">
            <feFlood flood-opacity="0" result="BackgroundImageFix" />
            <feBlend mode="normal" in="SourceGraphic" in2="BackgroundImageFix" result="shape" />
            <feGaussianBlur stdDeviation="2" result="effect1_foregroundBlur_690_38" />
        </filter>
        <filter id="filter5_f_690_38" x="774" y="258" width="146" height="140" filterUnits="userSpaceOnUse"
            color-interpolation-filters="sRGB">
            <feFlood flood-opacity="0" result="BackgroundImageFix" />
            <feBlend mode="normal" in="SourceGraphic" in2="BackgroundImageFix" result="shape" />
            <feGaussianBlur stdDeviation="2" result="effect1_foregroundBlur_690_38" />
        </filter>
        <filter id="filter6_d_690_38" x="825.318" y="533.818" width="43.5911" height="55.8181"
            filterUnits="userSpaceOnUse" color-interpolation-filters="sRGB">
            <feFlood flood-opacity="0" result="BackgroundImageFix" />
            <feColorMatrix in="SourceAlpha" type="matrix" values="0 0 0 0 0 0 0 0 0 0 0 0 0 0 0 0 0 0 127 0"
                result="hardAlpha" />
            <feOffset dy="4" />
            <feGaussianBlur stdDeviation="2" />
            <feComposite in2="hardAlpha" operator="out" />
            <feColorMatrix type="matrix" values="0 0 0 0 0 0 0 0 0 0 0 0 0 0 0 0 0 0 0.25 0" />
            <feBlend mode="normal" in2="BackgroundImageFix" result="effect1_dropShadow_690_38" />
            <feBlend mode="normal" in="SourceGraphic" in2="effect1_dropShadow_690_38" result="shape" />
        </filter>
    </defs>
</svg>